<?xml version="1.0" encoding="utf-8"?>
<!-- Generator: Adobe Illustrator 15.0.0, SVG Export Plug-In . SVG Version: 6.00 Build 0)  -->
<!DOCTYPE svg PUBLIC "-//W3C//DTD SVG 1.1//EN" "http://www.w3.org/Graphics/SVG/1.1/DTD/svg11.dtd">
<svg version="1.1" id="Layer_1" xmlns="http://www.w3.org/2000/svg" xmlns:xlink="http://www.w3.org/1999/xlink" x="0px" y="0px"
	 width="690px" height="182px" viewBox="0 0 690 182" enable-background="new 0 0 690 182" xml:space="preserve">
<path d="M80.586,101.392c0,4.85-0.607,8.941-1.817,12.28c-1.213,3.342-2.787,6.046-4.727,8.119
	c-1.938,2.074-4.134,3.565-6.584,4.481c-2.452,0.915-4.915,1.373-7.391,1.373c-0.755,0-1.737-0.064-2.95-0.199
	c-1.212-0.134-2.546-0.444-3.999-0.929c-1.453-0.482-2.923-1.183-4.404-2.098c-1.481-0.922-2.868-2.154-4.158-3.719
	c-1.133,1.564-2.371,2.797-3.717,3.719c-1.345,0.915-2.68,1.615-3.998,2.098c-1.32,0.484-2.546,0.795-3.676,0.929
	c-1.131,0.135-2.074,0.199-2.831,0.199c-2.584,0-5.062-0.458-7.431-1.373c-2.371-0.916-4.483-2.407-6.341-4.481
	c-1.859-2.073-3.341-4.777-4.443-8.119c-1.103-3.339-1.658-7.43-1.658-12.28V26.097c0-2.099-0.121-3.878-0.364-5.331
	c-0.239-1.456-0.603-2.678-1.089-3.676c-0.485-0.999-1.092-1.79-1.818-2.386c-0.727-0.589-1.574-1.047-2.544-1.374
	C4.212,13.172,4,12.956,4,12.686c0-0.374,0.334-0.874,1.008-1.495c0.673-0.618,1.523-1.224,2.546-1.818
	c1.021-0.592,2.168-1.103,3.434-1.535c1.263-0.431,2.461-0.646,3.592-0.646c1.024,0,2.062,0.271,3.11,0.809
	c1.051,0.538,1.994,1.467,2.829,2.788c0.836,1.321,1.522,3.083,2.06,5.292c0.539,2.209,0.808,4.98,0.808,8.32v78.607
	c0,3.181,0.297,5.615,0.889,7.312c0.592,1.696,1.304,2.936,2.139,3.717c0.836,0.78,1.699,1.241,2.586,1.373
	c0.889,0.135,1.603,0.202,2.14,0.202c0.648,0,1.415-0.067,2.302-0.202c0.891-0.132,1.751-0.646,2.587-1.535
	c0.836-0.889,1.547-2.306,2.141-4.242c0.592-1.938,0.888-4.685,0.888-8.24V20.28c0-0.808-0.038-1.481-0.122-2.018
	c-0.079-0.537-0.16-0.998-0.24-1.376c-0.083-0.375-0.152-0.711-0.205-1.009c-0.052-0.296-0.079-0.577-0.079-0.847
	c0-0.86,0.429-1.547,1.292-2.06c0.86-0.513,1.859-0.769,2.99-0.769c2.746,0,4.979,0.716,6.703,2.142
	c1.724,1.426,2.587,3.139,2.587,5.129v83.536c0,3.181,0.295,5.615,0.888,7.312c0.593,1.696,1.293,2.936,2.101,3.717
	c0.809,0.78,1.655,1.241,2.546,1.373c0.887,0.135,1.627,0.202,2.219,0.202c0.539,0,1.266-0.067,2.181-0.202
	c0.916-0.132,1.807-0.593,2.667-1.373c0.86-0.781,1.601-2.021,2.222-3.717c0.618-1.696,0.929-4.131,0.929-7.312V24.4
	c0-3.339,0.255-6.11,0.768-8.32c0.513-2.208,1.182-3.971,2.021-5.292c0.833-1.321,1.763-2.25,2.785-2.788
	c1.023-0.538,2.023-0.809,2.991-0.809c1.182,0,2.409,0.215,3.675,0.646c1.267,0.432,2.425,0.943,3.475,1.535
	c1.051,0.594,1.911,1.2,2.587,1.818c0.673,0.621,1.009,1.121,1.009,1.495c0,0.271-0.215,0.486-0.649,0.645
	c-1.079,0.326-1.977,0.784-2.705,1.374c-0.727,0.596-1.321,1.387-1.779,2.386c-0.458,0.998-0.794,2.22-1.008,3.676
	c-0.216,1.453-0.324,3.232-0.324,5.331V101.392z"/>
<path d="M399.63,102.076c0,4.578,0.713,8.038,2.141,10.381c1.424,2.343,3.811,3.515,7.148,3.515c2.102,0,4.227-0.673,6.387-2.017
	c2.148-1.347,4.248-3.274,6.301-5.779c2.045-2.505,3.941-5.521,5.693-9.048c1.748-3.528,3.295-7.46,4.648-11.797
	c1.342-4.332,2.391-9.033,3.145-14.096c0.76-5.061,1.131-10.341,1.131-15.835c0-5.544-0.604-10.798-1.814-15.753
	c-1.213-4.955-3.098-9.276-5.656-12.967c-2.557-3.689-5.816-6.613-9.775-8.765c-3.957-2.154-8.684-3.232-14.178-3.232
	c-4.578,0-8.618,0.513-12.121,1.535c-3.502,1.023-6.528,2.438-9.087,4.242c-2.558,1.807-4.712,3.918-6.463,6.344
	c-1.75,2.423-3.151,5.021-4.201,7.794c-1.05,2.775-1.791,5.657-2.219,8.646c-0.437,2.989-0.652,5.936-0.652,8.846
	c0,3.984,0.42,7.542,1.255,10.663c0.835,3.125,1.777,5.777,2.828,7.959c1.05,2.181,2.046,3.863,2.989,5.049
	c0.942,1.182,1.494,1.855,1.653,2.018c0.916-0.271,1.564-0.163,1.944,0.323c0.374,0.485,0.565,1.13,0.565,1.938
	c0,1.079-0.231,2.196-0.689,3.354c-0.458,1.16-1.064,2.208-1.821,3.15c-0.754,0.944-1.6,1.724-2.542,2.343s-1.898,0.929-2.865,0.929
	c-0.434,0-0.851-0.054-1.255-0.159c-0.404-0.108-0.818-0.324-1.254-0.652c-0.105-0.051-0.512-0.441-1.209-1.167
	c-0.7-0.729-1.564-1.765-2.588-3.11c-1.021-1.345-2.111-3.031-3.269-5.049c-1.161-2.021-2.235-4.352-3.232-6.991
	c-0.996-2.635-1.817-5.6-2.466-8.884c-0.644-3.284-0.967-6.87-0.967-10.746c0-7.485,1.142-14.367,3.433-20.642
	c2.29-6.273,5.534-11.662,9.735-16.159c4.204-4.495,9.261-7.997,15.188-10.501C391.415,5.252,398.014,4,405.285,4
	c7.705,0,14.34,1.466,19.914,4.401c5.574,2.937,10.152,6.827,13.734,11.676c3.582,4.844,6.232,10.394,7.961,16.641
	c1.723,6.249,2.582,12.713,2.582,19.39c0,7.81-0.605,15.026-1.818,21.653c-1.211,6.623-2.855,12.63-4.928,18.014
	c-2.072,5.386-4.484,10.139-7.23,14.26c-2.744,4.12-5.654,7.567-8.723,10.341c-3.074,2.773-6.223,4.858-9.455,6.261
	c-3.23,1.4-6.357,2.101-9.369,2.101c-3.883,0-7.178-0.605-9.898-1.817s-4.918-2.989-6.585-5.332s-2.881-5.225-3.632-8.645
	c-0.757-3.42-1.131-7.312-1.131-11.674V37.849c0-1.561-0.113-2.677-0.329-3.353c-0.213-0.673-0.321-1.305-0.321-1.897
	c0-0.86,0.429-1.547,1.293-2.06c0.859-0.513,1.882-0.769,3.07-0.769c2.747,0,4.968,0.717,6.665,2.143
	c1.696,1.426,2.545,3.137,2.545,5.129V102.076z"/>
<g>
	<path d="M502.438,100.59c0.082-0.515,0.377-0.951,0.869-1.296c0.498-0.344,1.068-0.581,1.719-0.706
		c0.643-0.129,1.322-0.129,2.033,0c0.713,0.125,1.332,0.417,1.877,0.871c0.535,0.452,0.92,1.079,1.156,1.876
		c0.238,0.797,0.211,1.818-0.096,3.067c-0.383,1.811-1.021,3.498-1.904,5.073c-0.881,1.573-1.992,2.963-3.328,4.172
		c-1.338,1.204-2.908,2.154-4.719,2.844c-1.807,0.689-3.836,1.034-6.074,1.034c-1.209,0-2.338-0.07-3.396-0.199
		c-1.057-0.123-2.078-0.36-3.068-0.706c-1.639,2.842-3.744,5.136-6.332,6.884c-2.584,1.745-5.777,2.615-9.568,2.615
		c-3.355,0-6.246-0.655-8.658-1.972c-2.414-1.312-4.416-3.103-6.012-5.364c-1.594-2.265-2.768-4.879-3.521-7.853
		c-0.756-2.973-1.129-6.121-1.129-9.436c0-4.866,0.572-9.229,1.713-13.088c1.139-3.855,2.465-7.131,3.973-9.823
		c1.508-2.694,3.006-4.752,4.492-6.175c1.486-1.419,2.592-2.131,3.328-2.131c0.859,0,1.65,0.378,2.355,1.131
		c0.711,0.755,1.232,1.637,1.555,2.649c0.322,1.013,0.406,2.035,0.258,3.069c-0.15,1.034-0.66,1.832-1.518,2.392
		c-0.52,0.818-1.133,1.768-1.844,2.847c-0.709,1.074-1.377,2.424-2.006,4.039c-0.621,1.616-1.152,3.584-1.58,5.913
		c-0.432,2.327-0.646,5.13-0.646,8.402c0,2.803,0.25,5.232,0.74,7.3c0.498,2.068,1.188,3.803,2.068,5.205
		c0.889,1.4,1.898,2.445,3.041,3.135s2.355,1.034,3.65,1.034c1.9,0,3.459-0.463,4.684-1.39c1.234-0.926,2.279-2.141,3.139-3.648
		c-3.104-2.674-5.459-6.065-7.076-10.186c-1.617-4.112-2.426-8.561-2.426-13.345c0-2.066,0.227-4.036,0.68-5.912
		c0.451-1.875,1.119-3.521,2-4.944c0.887-1.423,1.996-2.553,3.328-3.392c1.338-0.842,2.887-1.261,4.656-1.261
		c1.549,0,3.02,0.56,4.398,1.679c1.379,1.12,2.582,2.673,3.617,4.652c1.033,1.984,1.842,4.333,2.422,7.047
		c0.582,2.712,0.871,5.668,0.871,8.854c0,2.458-0.148,4.888-0.453,7.3c-0.299,2.413-0.773,4.742-1.42,6.986
		c0.477,0.169,0.916,0.264,1.324,0.288c0.41,0.021,0.852,0.032,1.326,0.032c1.42,0,2.68-0.259,3.781-0.773
		c1.096-0.52,2.037-1.209,2.809-2.067c0.781-0.864,1.402-1.878,1.877-3.041S502.221,101.882,502.438,100.59 M477.166,88.31
		c0,2.973,0.463,5.798,1.391,8.463c0.926,2.674,2.139,5.001,3.65,6.985c0.258-2.114,0.389-4.136,0.389-6.081
		c0-2.238-0.033-4.316-0.096-6.231c-0.066-1.921-0.221-3.567-0.451-4.945c-0.238-1.379-0.566-2.468-0.973-3.266
		c-0.406-0.797-0.961-1.194-1.65-1.194C477.918,82.042,477.166,84.129,477.166,88.31"/>
	<path d="M517.299,126.119c-2.582,0-4.934-0.453-7.041-1.357c-2.111-0.902-3.91-2.255-5.395-4.039
		c-1.486-1.786-2.629-4.008-3.426-6.657c-0.803-2.65-1.197-5.718-1.197-9.211c0-5.086,0.709-9.618,2.129-13.601
		c1.426-3.989,3.363-7.415,5.82-10.279c2.453-2.865,5.303-5.149,8.533-6.85c3.227-1.705,6.656-2.812,10.273-3.328V40.87
		c0-0.948-0.072-1.702-0.227-2.26c-0.152-0.56-0.299-1.004-0.451-1.327c-0.154-0.323-0.299-0.582-0.453-0.775
		c-0.15-0.193-0.227-0.4-0.227-0.615c0-0.256,0.129-0.474,0.391-0.645c0.254-0.174,0.598-0.322,1.035-0.452
		c0.428-0.129,0.895-0.227,1.383-0.293c0.498-0.062,0.984-0.095,1.457-0.095c2.201,0,3.936,0.571,5.199,1.711
		c1.271,1.142,1.912,2.513,1.912,4.107v71.093c0,0.735,0.086,1.454,0.26,2.165c0.17,0.711,0.439,1.357,0.809,1.938
		c0.361,0.582,0.834,1.057,1.418,1.422c0.582,0.369,1.258,0.55,2.039,0.55c1.334,0,2.486-0.474,3.453-1.425
		c0.973-0.942,1.814-2.13,2.52-3.555c0.711-1.416,1.295-2.96,1.746-4.615c0.453-1.662,0.832-3.221,1.131-4.691
		c0.262-1.379,0.689-2.378,1.295-3.005c0.604-0.622,1.23-0.932,1.875-0.932c0.514,0,1.059,0.159,1.615,0.479
		c0.561,0.329,1.068,0.746,1.521,1.26c0.453,0.521,0.812,1.102,1.096,1.748c0.283,0.649,0.418,1.293,0.418,1.937v0.329
		c0,0.123-0.041,0.322-0.123,0.581c-0.566,2.192-1.328,4.497-2.301,6.91c-0.967,2.413-2.217,4.635-3.746,6.657
		c-1.531,2.03-3.354,3.708-5.459,5.047c-2.113,1.333-4.588,2.001-7.438,2.001c-2.281,0-4.281-0.475-6.006-1.425
		c-1.723-0.942-3.086-2.192-4.074-3.746c-1.465,1.508-3.152,2.747-5.074,3.719C522.074,125.634,519.84,126.119,517.299,126.119
		 M519.305,117.394c1.725,0,3.221-0.498,4.492-1.486s2.342-2.219,3.199-3.684V79.521c-2.154,0.387-4.232,1.108-6.24,2.164
		c-2,1.057-3.766,2.533-5.299,4.427c-1.527,1.897-2.746,4.299-3.65,7.209c-0.902,2.905-1.355,6.431-1.355,10.567
		c0,2.413,0.248,4.47,0.746,6.17c0.49,1.701,1.141,3.091,1.939,4.171c0.793,1.074,1.732,1.872,2.805,2.391
		C517.021,117.136,518.143,117.394,519.305,117.394"/>
	<path d="M558.922,161.73c0-3.363,0.441-6.336,1.328-8.919c0.883-2.588,2.082-4.955,3.584-7.106c1.508-2.16,3.256-4.172,5.236-6.049
		c1.986-1.868,4.07-3.778,6.268-5.717v-13.896c-1.332,1.332-2.893,2.469-4.684,3.39c-1.787,0.927-3.842,1.39-6.172,1.39
		c-2.588,0-4.857-0.514-6.822-1.548c-1.959-1.035-3.602-2.445-4.943-4.233c-1.334-1.791-2.332-3.896-3.004-6.334
		c-0.668-2.435-1-5.052-1-7.854c0-5.515,0.881-10.472,2.65-14.863c1.77-4.396,4.111-8.136,7.043-11.215
		c2.928-3.082,6.281-5.441,10.049-7.077c3.77-1.637,7.68-2.456,11.732-2.456c1.807,0,3.279,0.485,4.396,1.452
		c1.119,0.971,1.678,2.339,1.678,4.106c0,1.121-0.119,1.906-0.355,2.359c-0.238,0.451-0.68,0.677-1.322,0.677
		c-0.604,0-1.227-0.041-1.879-0.129c-0.643-0.084-1.309-0.126-1.998-0.126c-2.504,0-5.041,0.547-7.629,1.646
		c-2.582,1.1-4.924,2.779-7.012,5.04c-2.092,2.264-3.803,5.129-5.139,8.6c-1.338,3.463-2.006,7.589-2.006,12.374
		c0,3.447,0.668,6.121,2.006,8.014c1.336,1.898,3.164,2.842,5.494,2.842c1.332,0,2.496-0.396,3.492-1.193
		c0.988-0.794,1.848-1.802,2.584-3.005c0.73-1.21,1.326-2.532,1.779-3.978c0.449-1.441,0.807-2.831,1.061-4.166V88.828
		c0-1.25-0.096-2.158-0.289-2.717c-0.189-0.559-0.293-1.074-0.293-1.55c0-0.647,0.344-1.185,1.035-1.616
		c0.689-0.429,1.508-0.645,2.459-0.645c2.195,0,3.93,0.571,5.201,1.712c1.271,1.142,1.906,2.532,1.906,4.167v36
		c2.414-2.674,4.623-5.706,6.629-9.115c2-3.401,3.672-7.385,5.006-11.957c0.432-1.379,0.904-2.378,1.424-3
		c0.516-0.627,1.119-0.937,1.807-0.937c0.516,0,1.047,0.156,1.584,0.479c0.537,0.329,1.033,0.746,1.488,1.266
		c0.451,0.515,0.816,1.096,1.1,1.74c0.277,0.651,0.418,1.295,0.418,1.938v0.52c0,0.262-0.045,0.516-0.129,0.775
		c-1.121,3.836-2.424,7.226-3.91,10.183c-1.486,2.949-3.07,5.588-4.754,7.918c-1.678,2.32-3.422,4.399-5.232,6.23
		c-1.807,1.832-3.621,3.525-5.43,5.074v22.882c0,3.49-0.395,6.432-1.191,8.82c-0.799,2.396-1.842,4.335-3.139,5.818
		c-1.293,1.487-2.768,2.556-4.43,3.2c-1.656,0.643-3.328,0.966-5.006,0.966c-1.854,0-3.555-0.396-5.107-1.193
		c-1.549-0.797-2.883-1.887-4.008-3.266c-1.117-1.378-1.988-2.995-2.615-4.848C559.24,165.826,558.922,163.841,558.922,161.73
		 M571.592,168.646c1.08,0,1.877-0.432,2.391-1.295c0.521-0.86,0.877-1.864,1.066-3.006c0.193-1.142,0.289-2.295,0.289-3.458v-2.712
		v-14.157c-2.152,2.16-3.889,4.589-5.197,7.307c-1.316,2.715-1.975,6.053-1.975,10.021c0,2.068,0.301,3.797,0.904,5.198
		C569.678,167.945,570.512,168.646,571.592,168.646"/>
	<path d="M628.012,83.915c0,2.456-0.416,4.977-1.26,7.56c-0.834,2.588-2.084,5.036-3.746,7.335c-1.66,2.306-3.705,4.373-6.143,6.205
		c-2.43,1.836-5.242,3.22-8.432,4.171c0.432,1.118,1.002,2.187,1.713,3.196c0.715,1.019,1.559,1.888,2.555,2.623
		c0.99,0.729,2.143,1.312,3.459,1.74c1.311,0.436,2.83,0.648,4.553,0.648c2.584,0,4.805-0.485,6.658-1.456
		c1.854-0.968,3.412-2.249,4.686-3.844c1.27-1.594,2.293-3.385,3.072-5.361c0.773-1.984,1.357-3.991,1.738-6.013
		c0.309-1.462,0.916-2.446,1.844-2.944c0.93-0.493,1.877-0.611,2.848-0.349c0.967,0.252,1.809,0.807,2.523,1.645
		c0.703,0.84,0.998,1.842,0.867,3.005c-0.168,1.333-0.461,2.865-0.867,4.589c-0.414,1.724-1.025,3.469-1.844,5.237
		c-0.822,1.765-1.865,3.498-3.137,5.198c-1.271,1.701-2.83,3.221-4.684,4.562c-1.855,1.333-4.031,2.412-6.533,3.231
		c-2.498,0.813-5.361,1.226-8.596,1.226c-3.012,0-5.934-0.593-8.752-1.78c-2.826-1.18-5.324-2.887-7.5-5.103
		c-2.174-2.22-3.922-4.955-5.238-8.209c-1.311-3.256-1.971-6.944-1.971-11.081c0-4.182,0.582-8.071,1.744-11.669
		c1.168-3.6,2.695-6.709,4.59-9.34c1.898-2.628,4.053-4.685,6.465-6.171c2.414-1.486,4.895-2.229,7.43-2.229
		c1.854,0,3.525,0.322,5.012,0.968c1.488,0.645,2.746,1.563,3.781,2.747c1.035,1.185,1.82,2.598,2.357,4.231
		C627.748,80.123,628.012,81.931,628.012,83.915 M606.686,99.556c0,0.391,0.023,0.773,0.062,1.164
		c0.047,0.385,0.068,0.797,0.068,1.228c1.639-0.775,3.127-1.764,4.459-2.973c1.332-1.204,2.48-2.583,3.422-4.137
		c0.951-1.548,1.688-3.245,2.201-5.074c0.52-1.831,0.773-3.738,0.773-5.72c0-1.465-0.242-2.605-0.74-3.425
		c-0.496-0.819-1.176-1.227-2.033-1.227c-1.08,0-2.041,0.363-2.877,1.097c-0.842,0.734-1.578,1.691-2.197,2.876
		c-0.627,1.187-1.143,2.521-1.555,4.007c-0.408,1.487-0.74,2.984-1.002,4.492c-0.258,1.508-0.428,2.938-0.52,4.301
		C606.666,97.52,606.641,98.65,606.686,99.556"/>
	<path d="M665.695,126.119c-1.549,0-3.139-0.237-4.752-0.711c-1.617-0.475-3.08-1.296-4.391-2.453
		c-1.316-1.164-2.396-2.707-3.234-4.621c-0.842-1.923-1.258-4.341-1.258-7.274c0-4.266,0.568-8.781,1.709-13.54
		c1.143-4.761,2.789-10.007,4.945-15.737h-10.08h-1.492c-0.039,1.293-0.117,2.928-0.225,4.912c-0.109,1.981-0.289,4.091-0.549,6.333
		c-0.26,2.238-0.594,4.505-1,6.787c-0.412,2.283-0.916,4.396-1.52,6.336c-0.432,1.379-1.109,2.173-2.037,2.389
		c-0.926,0.216-1.84,0.057-2.746-0.484c-0.9-0.539-1.637-1.322-2.197-2.356s-0.689-2.114-0.391-3.234
		c0.346-1.338,0.652-2.959,0.904-4.879c0.262-1.918,0.465-3.94,0.617-6.076c0.152-2.131,0.271-4.266,0.355-6.398
		c0.086-2.134,0.154-4.04,0.191-5.718c-1.637-0.905-2.994-2.058-4.066-3.458c-1.08-1.401-1.617-3.07-1.617-5.011
		c0-0.904,0.182-1.735,0.549-2.487c0.367-0.753,0.854-1.4,1.451-1.938c0.605-0.538,1.316-0.948,2.135-1.227
		c0.822-0.282,1.656-0.421,2.521-0.421c0.775,0,1.584,0.107,2.424,0.322c0.838,0.218,1.635,0.604,2.391,1.165
		c0.752,0.559,1.432,1.293,2.035,2.198s1.102,2.026,1.484,3.36c1.08,0.13,1.996,0.227,2.748,0.29
		c0.756,0.066,1.389,0.118,1.908,0.163c0.516,0.044,0.951,0.063,1.295,0.063h1.029h6.916c0.391,0,0.961,0.236,1.713,0.712
		c0.756,0.475,1.496,1.089,2.232,1.842c0.734,0.756,1.344,1.563,1.842,2.424c0.498,0.863,0.678,1.682,0.549,2.457
		c0,0.259-0.152,0.882-0.451,1.871c-0.303,0.995-0.668,2.243-1.098,3.752c-0.436,1.508-0.904,3.243-1.424,5.203
		c-0.516,1.957-0.988,4.02-1.424,6.173c-0.43,2.152-0.797,4.384-1.096,6.69c-0.301,2.305-0.453,4.554-0.453,6.754
		c0,0.902,0.107,1.785,0.322,2.649c0.213,0.859,0.537,1.627,0.973,2.295c0.428,0.665,0.977,1.189,1.643,1.58
		c0.674,0.392,1.459,0.582,2.363,0.582c1.51,0,2.797-0.474,3.877-1.422c1.08-0.945,1.982-2.133,2.711-3.555
		c0.736-1.419,1.328-2.963,1.781-4.624c0.451-1.656,0.828-3.215,1.131-4.683c0.258-1.379,0.689-2.381,1.291-3.008
		c0.607-0.622,1.229-0.932,1.879-0.932c0.514,0,1.051,0.159,1.609,0.481c0.566,0.326,1.066,0.743,1.518,1.257
		c0.453,0.521,0.822,1.104,1.104,1.748c0.277,0.649,0.42,1.293,0.42,1.939c0,0.213-0.025,0.388-0.062,0.52
		c-0.047,0.129-0.066,0.259-0.066,0.383c-0.607,2.2-1.395,4.505-2.359,6.918c-0.971,2.413-2.209,4.632-3.717,6.657
		c-1.508,2.027-3.318,3.705-5.432,5.038C671.018,125.454,668.535,126.119,665.695,126.119"/>
</g>
<g>
	<path d="M99.722,59.38c-1.076,0-2.098-0.214-3.069-0.645c-0.968-0.43-1.81-1.012-2.521-1.745c-0.712-0.731-1.282-1.584-1.712-2.555
		c-0.43-0.968-0.645-2.013-0.645-3.132c0-1.164,0.215-2.242,0.645-3.231c0.431-0.994,1-1.844,1.712-2.555
		c0.711-0.71,1.553-1.271,2.521-1.679c0.971-0.41,1.993-0.615,3.069-0.615c1.163,0,2.241,0.205,3.231,0.615
		c0.994,0.409,1.842,0.969,2.554,1.679c0.711,0.711,1.271,1.561,1.679,2.555c0.411,0.989,0.615,2.068,0.615,3.231
		c0,1.119-0.204,2.164-0.615,3.132c-0.408,0.971-0.968,1.823-1.679,2.555c-0.712,0.733-1.56,1.315-2.554,1.745
		C101.963,59.166,100.884,59.38,99.722,59.38 M102.76,111.927c0,0.299,0.021,0.787,0.063,1.452c0.044,0.673,0.174,1.352,0.389,2.041
		c0.216,0.689,0.56,1.287,1.034,1.807c0.474,0.515,1.142,0.775,2.005,0.775c1.29,0,2.424-0.474,3.392-1.425
		c0.971-0.941,1.808-2.13,2.521-3.554c0.711-1.419,1.303-2.96,1.779-4.616c0.474-1.661,0.861-3.221,1.163-4.691
		c0.256-1.333,0.656-2.305,1.194-2.903c0.538-0.606,1.119-0.94,1.745-1.007c0.626-0.062,1.25,0.103,1.876,0.487
		c0.623,0.388,1.182,0.892,1.679,1.519c0.497,0.627,0.863,1.323,1.097,2.103c0.237,0.773,0.271,1.508,0.1,2.197
		c-0.604,2.198-1.39,4.498-2.36,6.911c-0.969,2.412-2.21,4.634-3.718,6.662c-1.505,2.022-3.318,3.702-5.426,5.041
		c-2.112,1.333-4.588,2.001-7.435,2.001c-1.766,0-3.337-0.334-4.715-1.002c-1.379-0.665-2.542-1.564-3.492-2.682
		c-0.948-1.121-1.671-2.438-2.164-3.94c-0.497-1.508-0.745-3.103-0.745-4.785V78.965c0-1.248-0.097-2.153-0.29-2.716
		c-0.196-0.56-0.292-1.076-0.292-1.55c0-0.645,0.345-1.174,1.034-1.583c0.689-0.411,1.508-0.614,2.456-0.614
		c2.199,0,3.934,0.571,5.204,1.713c1.271,1.142,1.905,2.508,1.905,4.103V111.927z"/>
	<path d="M213.55,103.851c-0.281-0.605-0.648-1.188-1.1-1.745c-0.453-0.56-0.969-1.023-1.55-1.392
		c-0.583-0.366-1.153-0.546-1.713-0.546c-0.604,0-1.145,0.277-1.616,0.834c-0.474,0.561-0.949,1.47-1.423,2.72
		c-0.39,1.072-0.872,2.105-1.453,3.103c-0.582,0.987-1.315,1.903-2.199,2.744c-0.884,0.837-1.919,1.583-3.102,2.227
		c-1.185,0.652-2.553,1.126-4.105,1.425c0.218-0.735,0.378-1.509,0.484-2.326c0.108-0.822,0.163-1.619,0.163-2.393
		c0-3.147-0.452-5.881-1.356-8.205c-0.905-2.327-2.057-4.527-3.459-6.595c-1.401-2.068-2.942-4.158-4.621-6.27
		c-1.679-2.11-3.295-4.544-4.847-7.302c0.043-0.174,0.226-0.56,0.547-1.164c0.326-0.604,0.679-1.324,1.068-2.165
		c0.389-0.84,0.745-1.745,1.067-2.713c0.323-0.971,0.486-1.95,0.486-2.942c0-1.81-0.4-3.252-1.197-4.331
		c-0.797-1.078-1.995-1.616-3.587-1.616c-0.904,0-1.992,0.334-3.263,1.001c-1.271,0.667-2.501,1.519-3.684,2.553
		c-1.186,1.034-2.199,2.165-3.039,3.392c-0.842,1.23-1.26,2.405-1.26,3.524c0,1.12,0.192,2.187,0.581,3.199
		c0.39,1.013,0.905,2.013,1.553,3.005c-1.208,3.533-2.476,7.06-3.655,10.631c-0.903,2.744-2.013,6.609-2.563,8.771
		c-0.571,2.294-1.571,5.229-1.973,6.732c-0.041-0.006-0.111-0.021-0.148-0.021c-0.734,0-1.442,0.396-2.132,1.192
		c-0.689,0.798-1.152,1.818-1.391,3.068c-0.189,0.993-0.087,2.118,0.171,3.317c-0.28,0.35-0.551,0.711-0.86,1.018
		c-0.969,0.942-2.122,1.417-3.458,1.417c-0.863,0-1.519-0.254-1.971-0.773c-0.453-0.515-0.787-1.12-1-1.81
		c-0.216-0.689-0.345-1.368-0.39-2.033c-0.044-0.673-0.063-1.152-0.063-1.457V84.525c0-1.51-0.163-3.062-0.486-4.655
		c-0.321-1.594-0.893-3.036-1.712-4.33c-0.819-1.292-1.938-2.35-3.361-3.168c-1.424-0.816-3.231-1.226-5.431-1.226
		c-1.634,0-3.154,0.333-4.555,1c-1.401,0.67-2.713,1.597-3.944,2.781c-1.226,1.185-2.368,2.574-3.424,4.168
		s-2.036,3.318-2.938,5.171V78.32c0-1.594-0.637-2.962-1.91-4.107c-1.271-1.141-3.006-1.712-5.2-1.712
		c-0.949,0-1.768,0.207-2.458,0.616c-0.689,0.408-1.034,0.937-1.034,1.583c0,0.474,0.097,0.992,0.29,1.553
		c0.197,0.559,0.292,1.464,0.292,2.713v41.945c0,1.25,0.205,2.249,0.612,3.006c0.411,0.751,0.926,1.335,1.552,1.748
		c0.627,0.406,1.316,0.688,2.069,0.835c0.752,0.153,1.453,0.226,2.102,0.226c0.945,0,1.668-0.181,2.164-0.547
		c0.497-0.368,0.86-0.821,1.097-1.356c0.237-0.536,0.368-1.142,0.389-1.811c0.021-0.665,0.034-1.327,0.034-1.971v-19.325
		c0.255-2.628,0.892-5.246,1.905-7.855c1.011-2.604,2.187-4.943,3.521-7.011c1.337-2.069,2.695-3.748,4.073-5.042
		c1.378-1.291,2.542-1.938,3.492-1.938c0.645,0,1.152,0.204,1.516,0.614c0.368,0.408,0.648,0.96,0.841,1.649
		c0.193,0.69,0.311,1.487,0.355,2.392c0.044,0.903,0.063,1.871,0.063,2.906v26.885c0,1.684,0.249,3.277,0.745,4.785
		c0.497,1.512,1.226,2.822,2.197,3.945c0.969,1.121,2.132,2.012,3.489,2.68c1.359,0.665,2.92,0.999,4.688,0.999
		c2.842,0,5.318-0.665,7.431-2.001c1.273-0.805,2.405-1.78,3.466-2.836c0.507,0.407,1.07,0.813,1.749,1.221
		c1.075,0.644,2.271,1.238,3.584,1.774c1.315,0.541,2.694,0.982,4.137,1.328c1.444,0.345,2.854,0.514,4.233,0.514
		c2.716,0,5.162-0.438,7.338-1.322c2.175-0.88,4.058-2.017,5.652-3.391c4.136-0.304,7.605-1.028,10.407-2.17
		c2.799-1.14,5.233-2.548,7.302-4.23c0.778-0.646,1.531-1.414,2.264-2.295c0.73-0.883,1.39-1.799,1.969-2.747
		c0.582-0.95,1.045-1.877,1.39-2.779c0.344-0.904,0.518-1.68,0.518-2.329C213.969,104.993,213.829,104.448,213.55,103.851
		 M185.919,112.186c-0.604,1.425-1.271,2.566-2.004,3.426c-1.119,0-2.358-0.184-3.715-0.55c-1.356-0.366-2.745-0.84-4.169-1.424
		c-1.423-0.583-2.843-1.19-4.266-1.843c-0.635-0.285-1.242-0.565-1.833-0.84c0.542-1.503,1.02-2.968,1.395-4.385
		c0.253-0.595,2.442-7.648,3.218-10.123c0.774-2.474,1.679-4.989,2.713-7.53c1.163,1.164,2.316,2.406,3.458,3.717
		c1.142,1.317,2.166,2.723,3.073,4.23c0.905,1.511,1.635,3.149,2.195,4.918c0.563,1.763,0.841,3.678,0.841,5.752
		C186.824,109.213,186.522,110.761,185.919,112.186"/>
	<path d="M215.606,111.927c0,2.155,0.409,3.709,1.227,4.65c0.82,0.951,1.92,1.425,3.299,1.425c1.334,0,2.487-0.474,3.458-1.425
		c0.968-0.941,1.809-2.13,2.521-3.554c0.708-1.419,1.29-2.96,1.742-4.616c0.452-1.661,0.831-3.221,1.134-4.691
		c0.256-1.378,0.689-2.377,1.291-3c0.604-0.627,1.23-0.937,1.875-0.937c0.516,0,1.056,0.156,1.616,0.485
		c0.561,0.323,1.068,0.74,1.521,1.26c0.451,0.514,0.818,1.096,1.098,1.74c0.281,0.651,0.418,1.295,0.418,1.938v0.329
		c0,0.129-0.041,0.32-0.126,0.581c-0.563,2.198-1.327,4.498-2.295,6.911c-0.971,2.412-2.22,4.634-3.75,6.662
		c-1.529,2.022-3.352,3.702-5.46,5.041c-2.113,1.333-4.589,2.001-7.435,2.001c-1.766,0-3.393-0.267-4.879-0.808
		c-1.486-0.539-2.768-1.403-3.847-2.583c-1.074-1.188-1.916-2.706-2.521-4.562c-0.6-1.853-0.903-4.091-0.903-6.72V38.829
		c0-0.949-0.076-1.702-0.227-2.262c-0.152-0.56-0.301-1.001-0.452-1.327c-0.152-0.322-0.301-0.582-0.453-0.774
		c-0.152-0.194-0.227-0.397-0.227-0.613c0-0.259,0.129-0.474,0.39-0.647c0.255-0.171,0.601-0.324,1.034-0.453
		c0.43-0.129,0.893-0.226,1.39-0.289c0.495-0.066,0.979-0.1,1.453-0.1c2.198,0,3.933,0.571,5.204,1.715
		c1.271,1.142,1.905,2.51,1.905,4.103V111.927z"/>
	<path d="M277.976,101.198c0.085-0.515,0.377-0.951,0.871-1.295c0.497-0.345,1.067-0.583,1.715-0.706
		c0.646-0.129,1.324-0.129,2.035,0c0.713,0.124,1.336,0.417,1.876,0.87c0.538,0.452,0.924,1.08,1.161,1.877
		c0.237,0.797,0.208,1.817-0.095,3.067c-0.387,1.81-1.024,3.498-1.907,5.073c-0.882,1.572-1.993,2.962-3.328,4.172
		c-1.337,1.203-2.909,2.154-4.718,2.844c-1.809,0.688-3.835,1.034-6.074,1.034c-1.208,0-2.339-0.07-3.396-0.199
		c-1.056-0.125-2.079-0.361-3.069-0.706c-1.637,2.841-3.748,5.136-6.334,6.883c-2.583,1.745-5.775,2.615-9.566,2.615
		c-3.358,0-6.245-0.654-8.658-1.972c-2.413-1.311-4.418-3.102-6.012-5.364c-1.594-2.265-2.768-4.88-3.521-7.853
		c-0.756-2.974-1.131-6.121-1.131-9.437c0-4.866,0.571-9.229,1.713-13.088c1.142-3.854,2.465-7.13,3.974-9.822
		c1.508-2.694,3.006-4.751,4.492-6.175c1.486-1.419,2.594-2.131,3.328-2.131c0.86,0,1.649,0.378,2.358,1.131
		c0.711,0.755,1.229,1.637,1.552,2.65c0.323,1.013,0.408,2.035,0.26,3.069c-0.152,1.034-0.66,1.831-1.521,2.392
		c-0.518,0.818-1.131,1.768-1.842,2.846c-0.711,1.075-1.379,2.424-2.005,4.04c-0.623,1.616-1.152,3.584-1.582,5.912
		c-0.431,2.327-0.647,5.13-0.647,8.402c0,2.804,0.25,5.233,0.742,7.301c0.497,2.068,1.186,3.803,2.068,5.205
		c0.886,1.401,1.897,2.445,3.04,3.135c1.142,0.689,2.357,1.034,3.652,1.034c1.897,0,3.458-0.463,4.685-1.39
		c1.23-0.926,2.275-2.141,3.135-3.648c-3.102-2.675-5.46-6.064-7.076-10.185c-1.616-4.112-2.423-8.561-2.423-13.346
		c0-2.065,0.225-4.036,0.677-5.912c0.453-1.874,1.121-3.521,2.002-4.944c0.886-1.424,1.994-2.553,3.328-3.393
		c1.337-0.841,2.887-1.26,4.655-1.26c1.55,0,3.017,0.561,4.396,1.679c1.379,1.121,2.584,2.673,3.618,4.653
		c1.034,1.983,1.842,4.332,2.424,7.045c0.582,2.713,0.871,5.668,0.871,8.854c0,2.458-0.15,4.888-0.452,7.3
		c-0.301,2.413-0.774,4.743-1.421,6.986c0.476,0.17,0.916,0.264,1.324,0.288c0.412,0.021,0.853,0.032,1.328,0.032
		c1.419,0,2.679-0.259,3.779-0.772c1.098-0.521,2.036-1.21,2.81-2.068c0.778-0.865,1.402-1.878,1.876-3.041
		S277.76,102.491,277.976,101.198 M252.705,88.918c0,2.973,0.463,5.798,1.39,8.464c0.926,2.674,2.144,5,3.651,6.985
		c0.259-2.113,0.39-4.136,0.39-6.08c0-2.238-0.034-4.317-0.098-6.231c-0.066-1.921-0.218-3.567-0.452-4.946
		c-0.237-1.379-0.563-2.468-0.971-3.265c-0.408-0.797-0.96-1.194-1.649-1.194C253.457,82.65,252.705,84.737,252.705,88.918"/>
	<path d="M278.04,78.965c0-1.249-0.097-2.154-0.289-2.713c-0.195-0.561-0.293-1.079-0.293-1.553c0-0.646,0.345-1.175,1.035-1.583
		c0.689-0.411,1.508-0.616,2.457-0.616c2.197,0,3.929,0.571,5.2,1.712c1.271,1.142,1.908,2.513,1.908,4.107v5.945
		c0.905-1.853,1.884-3.577,2.941-5.171c1.056-1.594,2.198-2.984,3.424-4.168c1.231-1.187,2.542-2.11,3.944-2.781
		c1.401-0.667,2.92-1,4.555-1c2.198,0,4.01,0.408,5.431,1.226c1.422,0.819,2.542,1.876,3.361,3.168
		c0.819,1.294,1.39,2.736,1.712,4.33c0.324,1.593,0.485,3.146,0.485,4.655v27.402c0,0.305,0.023,0.784,0.065,1.452
		c0.043,0.673,0.174,1.349,0.387,2.038c0.216,0.689,0.55,1.295,1.002,1.81c0.452,0.52,1.111,0.773,1.971,0.773
		c1.334,0,2.487-0.475,3.458-1.417c0.968-0.95,1.81-2.136,2.521-3.555c0.711-1.424,1.294-2.968,1.745-4.624
		c0.452-1.658,0.831-3.221,1.131-4.683c0.26-1.379,0.689-2.386,1.294-3.008c0.601-0.625,1.227-0.937,1.871-0.937
		c0.519,0,1.057,0.159,1.616,0.487c0.561,0.321,1.068,0.74,1.521,1.26c0.452,0.514,0.819,1.096,1.101,1.746
		c0.278,0.644,0.418,1.287,0.418,1.938v0.32c0,0.132-0.043,0.323-0.129,0.582c-0.56,2.2-1.324,4.505-2.294,6.918
		s-2.22,4.627-3.747,6.657c-1.531,2.022-3.351,3.7-5.463,5.038c-2.11,1.336-4.589,2.001-7.432,2.001
		c-1.767,0-3.329-0.331-4.685-0.999c-1.36-0.668-2.521-1.559-3.492-2.685c-0.971-1.118-1.702-2.429-2.197-3.938
		c-0.497-1.511-0.742-3.103-0.742-4.788V87.431c0-1.035-0.021-2.003-0.066-2.906c-0.042-0.908-0.16-1.705-0.355-2.395
		c-0.194-0.689-0.475-1.237-0.839-1.646c-0.366-0.411-0.874-0.614-1.519-0.614c-0.949,0-2.113,0.645-3.492,1.938
		c-1.379,1.294-2.736,2.973-4.07,5.042c-1.337,2.068-2.513,4.407-3.523,7.011c-1.013,2.612-1.647,5.227-1.907,7.855v19.325
		c0,0.646-0.01,1.301-0.032,1.974c-0.022,0.666-0.152,1.271-0.389,1.808c-0.234,0.538-0.601,0.988-1.097,1.356
		c-0.497,0.366-1.216,0.547-2.165,0.547c-0.645,0-1.345-0.072-2.101-0.226c-0.752-0.146-1.442-0.429-2.068-0.835
		c-0.624-0.413-1.142-0.994-1.55-1.748c-0.411-0.757-0.616-1.756-0.616-3.006V78.965z"/>
	<path d="M205.589,64.466c-1.464,0-2.769-0.011-3.91-0.034c-1.142-0.021-2.102-0.052-2.876-0.095
		c-0.905-0.042-1.702-0.086-2.391-0.131c-1.034,0-1.95-0.463-2.746-1.39c-0.797-0.926-1.357-1.95-1.683-3.068
		c-0.321-1.121-0.363-2.144-0.126-3.07c0.234-0.926,0.827-1.39,1.776-1.39c0.99,0.086,2.09,0.152,3.295,0.194
		c1.034,0.084,2.283,0.14,3.751,0.162c1.463,0.023,3.102,0.052,4.911,0.097l10.017,0.129c4.052,0,8.326-0.043,12.83-0.129
		c4.503-0.085,9.023-0.148,13.539-0.452c0.925-0.063,2.058-0.129,2.166,0.516c0.11,0.647,0.119,1.444,0.034,2.395
		c-0.086,0.945-0.26,1.861-0.516,2.747c-0.259,0.882-0.615,1.645-1.067,2.294c-0.452,0.645-0.96,0.967-1.519,0.967
		c-5.301,0.131-9.985,0.205-14.056,0.226c-4.073,0.023-7.875,0.034-11.409,0.034H205.589z"/>
</g>
</svg>
